<svg xmlns="http://www.w3.org/2000/svg" viewBox="0 0 200 60" width="200" height="60">
  <defs>
    <linearGradient id="logoGradientWhite" x1="0%" y1="0%" x2="100%" y2="0%">
      <stop offset="0%" style="stop-color:#FFFFFF;stop-opacity:1" />
      <stop offset="100%" style="stop-color:#F0F0F0;stop-opacity:1" />
    </linearGradient>
  </defs>
  
  <!-- Hotel Building Icon -->
  <rect x="10" y="25" width="30" height="25" fill="url(#logoGradientWhite)" rx="2"/>
  <rect x="15" y="30" width="5" height="15" fill="#420264"/>
  <rect x="25" y="30" width="5" height="15" fill="#420264"/>
  <rect x="20" y="35" width="5" height="10" fill="#420264"/>
  
  <!-- Crown Element -->
  <path d="M45 20 L50 15 L55 20 L60 15 L65 20 L70 15 L75 20 L80 15 L85 20 L90 15 L95 20 L100 15 L105 20 L110 15 L115 20 L120 15 L125 20 L130 15 L135 20 L140 15 L145 20 L150 15 L155 20 L160 15 L165 20 L170 15 L175 20 L180 15 L185 20 L190 15 L195 20 L200 15 L200 25 L45 25 Z" fill="url(#logoGradientWhite)"/>
  
  <!-- Text -->
  <text x="50" y="45" font-family="Cormorant Garamond, serif" font-size="18" font-weight="700" fill="#FFFFFF" text-anchor="middle">VETIVER GRAND</text>
</svg>

